<svg width="24" height="20" viewBox="0 0 24 20" fill="none" xmlns="http://www.w3.org/2000/svg">
<g clip-path="url(#clip0_103_561)">
<path d="M4.8 5C4.8 4.50754 4.89312 4.01991 5.07403 3.56494C5.25495 3.10997 5.52012 2.69657 5.85442 2.34835C6.18871 2.00013 6.58557 1.72391 7.02234 1.53545C7.45911 1.347 7.92724 1.25 8.4 1.25C8.87276 1.25 9.34089 1.347 9.77766 1.53545C10.2144 1.72391 10.6113 2.00013 10.9456 2.34835C11.2799 2.69657 11.5451 3.10997 11.726 3.56494C11.9069 4.01991 12 4.50754 12 5C12 5.49246 11.9069 5.98009 11.726 6.43506C11.5451 6.89003 11.2799 7.30343 10.9456 7.65165C10.6113 7.99987 10.2144 8.27609 9.77766 8.46455C9.34089 8.653 8.87276 8.75 8.4 8.75C7.92724 8.75 7.45911 8.653 7.02234 8.46455C6.58557 8.27609 6.18871 7.99987 5.85442 7.65165C5.52012 7.30343 5.25495 6.89003 5.07403 6.43506C4.89312 5.98009 4.8 5.49246 4.8 5ZM10.1138 13.125C13.1138 13.125 15.5513 15.6367 15.6 18.75H1.2C1.245 15.6367 3.6825 13.125 6.68625 13.125H10.1138ZM8.4 10C9.67304 10 10.8939 9.47322 11.7941 8.53553C12.6943 7.59785 13.2 6.32608 13.2 5C13.2 3.67392 12.6943 2.40215 11.7941 1.46447C10.8939 0.526784 9.67304 0 8.4 0C7.12696 0 5.90606 0.526784 5.00589 1.46447C4.10571 2.40215 3.6 3.67392 3.6 5C3.6 6.32608 4.10571 7.59785 5.00589 8.53553C5.90606 9.47322 7.12696 10 8.4 10ZM6.68625 11.875C2.9925 11.875 0 14.9922 0 18.8398C0 19.4805 0.49875 20 1.11375 20H15.6862C16.3013 20 16.8 19.4805 16.8 18.8398C16.8 14.9922 13.8075 11.875 10.1138 11.875H6.68625ZM22.8488 20C23.4862 20 24 19.4609 24 18.8008C24 15.3203 21.2925 12.5 17.9513 12.5H15.6488C15.4838 12.5 15.3188 12.5078 15.1538 12.5195C15.5775 12.8867 15.9637 13.2969 16.305 13.75H17.9513C20.6138 13.75 22.7738 15.9844 22.8 18.75H18C18 18.7812 18 18.8086 18 18.8398C18 19.2617 17.895 19.6562 17.715 20H22.8488ZM16.2 10C18.5213 10 20.4 8.04297 20.4 5.625C20.4 3.20703 18.5213 1.25 16.2 1.25C15.27 1.25 14.4113 1.56641 13.7138 2.09766C13.9088 2.48047 14.0625 2.89062 14.1788 3.31641C14.7113 2.80859 15.42 2.5 16.2 2.5C17.8575 2.5 19.2 3.89844 19.2 5.625C19.2 7.35156 17.8575 8.75 16.2 8.75C15.255 8.75 14.415 8.29688 13.8638 7.58594C13.6875 7.98828 13.4738 8.36328 13.2263 8.71484C13.9875 9.50781 15.0375 10 16.2 10Z" fill="white"/>
</g>
<defs>
<clipPath id="clip0_103_561">
<rect width="24" height="20" fill="white"/>
</clipPath>
</defs>
</svg>
