<svg width="34" height="26" viewBox="0 0 34 26" fill="none" xmlns="http://www.w3.org/2000/svg">
<path fill-rule="evenodd" clip-rule="evenodd" d="M20.1102 1.07619C22.445 -1.23506 26.4023 0.423292 26.4023 3.70677V18.986C26.4023 22.2694 22.445 23.9278 20.1102 21.6165L16.2235 17.7693L12.3369 21.6166L11.8996 21.1748L12.3369 21.6166C10.002 23.9277 6.0448 22.2695 6.0448 18.9859V3.7068C6.0448 0.423306 10.002 -1.23503 12.3369 1.07622L16.2235 4.92345L20.1102 1.0762C20.1102 1.0762 20.1102 1.07619 20.1102 1.07619ZM15.34 5.79806L11.4623 1.95973L11.8954 1.52227L11.4623 1.95973C9.91519 0.428232 7.28797 1.52392 7.28797 3.7068V18.9859C7.28797 21.1688 9.91518 22.2645 11.4623 20.733L15.34 16.8947L12.3924 13.977L12.8297 13.5352L12.3924 13.977C10.9296 12.529 10.9296 10.1637 12.3924 8.71575L12.8297 9.15751L12.3924 8.71575L15.34 5.79806ZM16.2235 16.0201L13.267 13.0935C12.2957 12.132 12.2957 10.5607 13.267 9.59927L16.2235 6.67267L19.1801 9.59929C20.1514 10.5608 20.1514 12.132 19.1801 13.0935L16.2235 16.0201ZM17.1071 16.8947L20.0547 13.977L19.6174 13.5352L20.0547 13.977C21.5174 12.529 21.5174 10.1637 20.0547 8.71578L19.6174 9.15753L20.0547 8.71577L17.1071 5.79806L20.9847 1.95971L20.9847 1.9597C22.5318 0.428218 25.1591 1.52388 25.1591 3.70677V18.986C25.1591 21.1688 22.5319 22.2645 20.9847 20.733L20.5474 21.1748L20.9847 20.733L17.1071 16.8947Z" fill="white"/>
<mask id="path-2-outside-1_103_566" maskUnits="userSpaceOnUse" x="0" y="12.9817" width="34" height="13" fill="black">
<rect fill="white" y="12.9817" width="34" height="13"/>
<path d="M5.112 21.7737C4.70133 21.7737 4.33867 21.7044 4.024 21.5657C3.70933 21.4217 3.46133 21.219 3.28 20.9577C3.09867 20.691 3.00533 20.3684 3 19.9897H4.08C4.09067 20.251 4.184 20.4724 4.36 20.6537C4.54133 20.8297 4.78933 20.9177 5.104 20.9177C5.376 20.9177 5.592 20.8537 5.752 20.7257C5.912 20.5924 5.992 20.4164 5.992 20.1977C5.992 19.9684 5.92 19.7897 5.776 19.6617C5.63733 19.5337 5.45067 19.4297 5.216 19.3497C4.98133 19.2697 4.73067 19.1844 4.464 19.0937C4.032 18.9444 3.70133 18.7524 3.472 18.5177C3.248 18.283 3.136 17.971 3.136 17.5817C3.13067 17.251 3.208 16.9684 3.368 16.7337C3.53333 16.4937 3.75733 16.3097 4.04 16.1817C4.32267 16.0484 4.648 15.9817 5.016 15.9817C5.38933 15.9817 5.71733 16.0484 6 16.1817C6.288 16.315 6.512 16.5017 6.672 16.7417C6.83733 16.9817 6.92533 17.267 6.936 17.5977H5.84C5.83467 17.4004 5.75733 17.227 5.608 17.0777C5.464 16.923 5.26133 16.8457 5 16.8457C4.776 16.8404 4.58667 16.8964 4.432 17.0137C4.28267 17.1257 4.208 17.291 4.208 17.5097C4.208 17.6964 4.26667 17.8457 4.384 17.9577C4.50133 18.0644 4.66133 18.155 4.864 18.2297C5.06667 18.3044 5.29867 18.3844 5.56 18.4697C5.83733 18.5657 6.09067 18.6777 6.32 18.8057C6.54933 18.9337 6.73333 19.1044 6.872 19.3177C7.01067 19.5257 7.08 19.795 7.08 20.1257C7.08 20.419 7.00533 20.691 6.856 20.9417C6.70667 21.1924 6.48533 21.395 6.192 21.5497C5.89867 21.699 5.53867 21.7737 5.112 21.7737Z"/>
<path d="M7.94944 23.4377V17.7097H8.86144L8.97344 18.2777C9.10144 18.1017 9.26944 17.947 9.47744 17.8137C9.69077 17.6804 9.96544 17.6137 10.3014 17.6137C10.6748 17.6137 11.0081 17.7044 11.3014 17.8857C11.5948 18.067 11.8268 18.315 11.9974 18.6297C12.1681 18.9444 12.2534 19.3017 12.2534 19.7017C12.2534 20.1017 12.1681 20.459 11.9974 20.7737C11.8268 21.083 11.5948 21.3284 11.3014 21.5097C11.0081 21.6857 10.6748 21.7737 10.3014 21.7737C10.0028 21.7737 9.74144 21.7177 9.51744 21.6057C9.29344 21.4937 9.1121 21.3364 8.97344 21.1337V23.4377H7.94944ZM10.0854 20.8777C10.4108 20.8777 10.6801 20.7684 10.8934 20.5497C11.1068 20.331 11.2134 20.0484 11.2134 19.7017C11.2134 19.355 11.1068 19.0697 10.8934 18.8457C10.6801 18.6217 10.4108 18.5097 10.0854 18.5097C9.75477 18.5097 9.48277 18.6217 9.26944 18.8457C9.06144 19.0644 8.95744 19.347 8.95744 19.6937C8.95744 20.0404 9.06144 20.3257 9.26944 20.5497C9.48277 20.7684 9.75477 20.8777 10.0854 20.8777Z"/>
<path d="M14.5362 21.7737C14.1949 21.7737 13.9149 21.7204 13.6962 21.6137C13.4775 21.5017 13.3149 21.355 13.2082 21.1737C13.1015 20.9924 13.0482 20.7924 13.0482 20.5737C13.0482 20.2057 13.1922 19.907 13.4802 19.6777C13.7682 19.4484 14.2002 19.3337 14.7762 19.3337H15.7842V19.2377C15.7842 18.9657 15.7069 18.7657 15.5522 18.6377C15.3975 18.5097 15.2055 18.4457 14.9762 18.4457C14.7682 18.4457 14.5869 18.4964 14.4322 18.5977C14.2775 18.6937 14.1815 18.8377 14.1442 19.0297H13.1442C13.1709 18.7417 13.2669 18.491 13.4322 18.2777C13.6029 18.0644 13.8215 17.9017 14.0882 17.7897C14.3549 17.6724 14.6535 17.6137 14.9842 17.6137C15.5495 17.6137 15.9949 17.755 16.3202 18.0377C16.6455 18.3204 16.8082 18.7204 16.8082 19.2377V21.6777H15.9362L15.8402 21.0377C15.7229 21.251 15.5575 21.427 15.3442 21.5657C15.1362 21.7044 14.8669 21.7737 14.5362 21.7737ZM14.7682 20.9737C15.0615 20.9737 15.2882 20.8777 15.4482 20.6857C15.6135 20.4937 15.7175 20.2564 15.7602 19.9737H14.8882C14.6162 19.9737 14.4215 20.0244 14.3042 20.1257C14.1869 20.2217 14.1282 20.3417 14.1282 20.4857C14.1282 20.6404 14.1869 20.7604 14.3042 20.8457C14.4215 20.931 14.5762 20.9737 14.7682 20.9737Z"/>
<path d="M19.7294 21.7737C19.324 21.7737 18.9667 21.6857 18.6574 21.5097C18.348 21.3337 18.1027 21.0884 17.9214 20.7737C17.7454 20.459 17.6574 20.099 17.6574 19.6937C17.6574 19.2884 17.7454 18.9284 17.9214 18.6137C18.1027 18.299 18.348 18.0537 18.6574 17.8777C18.9667 17.7017 19.324 17.6137 19.7294 17.6137C20.236 17.6137 20.6627 17.747 21.0094 18.0137C21.356 18.275 21.5774 18.6377 21.6734 19.1017H20.5934C20.54 18.9097 20.4334 18.7604 20.2734 18.6537C20.1187 18.5417 19.9347 18.4857 19.7214 18.4857C19.4387 18.4857 19.1987 18.5924 19.0014 18.8057C18.804 19.019 18.7054 19.315 18.7054 19.6937C18.7054 20.0724 18.804 20.3684 19.0014 20.5817C19.1987 20.795 19.4387 20.9017 19.7214 20.9017C19.9347 20.9017 20.1187 20.8484 20.2734 20.7417C20.4334 20.635 20.54 20.483 20.5934 20.2857H21.6734C21.5774 20.7337 21.356 21.0937 21.0094 21.3657C20.6627 21.6377 20.236 21.7737 19.7294 21.7737Z"/>
<path d="M24.5103 21.7737C24.1103 21.7737 23.7556 21.6884 23.4463 21.5177C23.1369 21.347 22.8943 21.107 22.7183 20.7977C22.5422 20.4884 22.4543 20.131 22.4543 19.7257C22.4543 19.315 22.5396 18.9497 22.7103 18.6297C22.8863 18.3097 23.1262 18.0617 23.4303 17.8857C23.7396 17.7044 24.1022 17.6137 24.5182 17.6137C24.9076 17.6137 25.2516 17.699 25.5503 17.8697C25.8489 18.0404 26.0809 18.275 26.2463 18.5737C26.4169 18.867 26.5023 19.195 26.5023 19.5577C26.5023 19.6164 26.4996 19.6777 26.4942 19.7417C26.4942 19.8057 26.4916 19.8724 26.4862 19.9417H23.4702C23.4916 20.251 23.5983 20.4937 23.7903 20.6697C23.9876 20.8457 24.2249 20.9337 24.5023 20.9337C24.7103 20.9337 24.8836 20.8884 25.0222 20.7977C25.1662 20.7017 25.2729 20.579 25.3423 20.4297H26.3822C26.3076 20.6804 26.1823 20.9097 26.0063 21.1177C25.8356 21.3204 25.6223 21.4804 25.3663 21.5977C25.1156 21.715 24.8302 21.7737 24.5103 21.7737ZM24.5182 18.4457C24.2676 18.4457 24.0462 18.5177 23.8542 18.6617C23.6623 18.8004 23.5396 19.0137 23.4862 19.3017H25.4622C25.4462 19.0404 25.3503 18.8324 25.1742 18.6777C24.9982 18.523 24.7796 18.4457 24.5182 18.4457Z"/>
<path d="M29.0035 21.7737C28.6515 21.7737 28.3422 21.7177 28.0755 21.6057C27.8088 21.4884 27.5955 21.3284 27.4355 21.1257C27.2755 20.923 27.1795 20.6884 27.1475 20.4217H28.1795C28.2115 20.5764 28.2968 20.7097 28.4355 20.8217C28.5795 20.9284 28.7635 20.9817 28.9875 20.9817C29.2115 20.9817 29.3742 20.9364 29.4755 20.8457C29.5822 20.755 29.6355 20.651 29.6355 20.5337C29.6355 20.363 29.5608 20.2484 29.4115 20.1897C29.2622 20.1257 29.0542 20.0644 28.7875 20.0057C28.6168 19.9684 28.4435 19.923 28.2675 19.8697C28.0915 19.8164 27.9288 19.7497 27.7795 19.6697C27.6355 19.5844 27.5182 19.4777 27.4275 19.3497C27.3368 19.2164 27.2915 19.0537 27.2915 18.8617C27.2915 18.5097 27.4302 18.2137 27.7075 17.9737C27.9902 17.7337 28.3848 17.6137 28.8915 17.6137C29.3608 17.6137 29.7342 17.723 30.0115 17.9417C30.2942 18.1604 30.4622 18.4617 30.5155 18.8457H29.5475C29.4888 18.5524 29.2675 18.4057 28.8835 18.4057C28.6915 18.4057 28.5422 18.443 28.4355 18.5177C28.3342 18.5924 28.2835 18.6857 28.2835 18.7977C28.2835 18.915 28.3608 19.0084 28.5155 19.0777C28.6702 19.147 28.8755 19.211 29.1315 19.2697C29.4088 19.3337 29.6622 19.4057 29.8915 19.4857C30.1262 19.5604 30.3128 19.675 30.4515 19.8297C30.5902 19.979 30.6595 20.195 30.6595 20.4777C30.6648 20.723 30.6008 20.9444 30.4675 21.1417C30.3342 21.339 30.1422 21.4937 29.8915 21.6057C29.6408 21.7177 29.3448 21.7737 29.0035 21.7737Z"/>
</mask>
<path d="M5.112 21.7737C4.70133 21.7737 4.33867 21.7044 4.024 21.5657C3.70933 21.4217 3.46133 21.219 3.28 20.9577C3.09867 20.691 3.00533 20.3684 3 19.9897H4.08C4.09067 20.251 4.184 20.4724 4.36 20.6537C4.54133 20.8297 4.78933 20.9177 5.104 20.9177C5.376 20.9177 5.592 20.8537 5.752 20.7257C5.912 20.5924 5.992 20.4164 5.992 20.1977C5.992 19.9684 5.92 19.7897 5.776 19.6617C5.63733 19.5337 5.45067 19.4297 5.216 19.3497C4.98133 19.2697 4.73067 19.1844 4.464 19.0937C4.032 18.9444 3.70133 18.7524 3.472 18.5177C3.248 18.283 3.136 17.971 3.136 17.5817C3.13067 17.251 3.208 16.9684 3.368 16.7337C3.53333 16.4937 3.75733 16.3097 4.04 16.1817C4.32267 16.0484 4.648 15.9817 5.016 15.9817C5.38933 15.9817 5.71733 16.0484 6 16.1817C6.288 16.315 6.512 16.5017 6.672 16.7417C6.83733 16.9817 6.92533 17.267 6.936 17.5977H5.84C5.83467 17.4004 5.75733 17.227 5.608 17.0777C5.464 16.923 5.26133 16.8457 5 16.8457C4.776 16.8404 4.58667 16.8964 4.432 17.0137C4.28267 17.1257 4.208 17.291 4.208 17.5097C4.208 17.6964 4.26667 17.8457 4.384 17.9577C4.50133 18.0644 4.66133 18.155 4.864 18.2297C5.06667 18.3044 5.29867 18.3844 5.56 18.4697C5.83733 18.5657 6.09067 18.6777 6.32 18.8057C6.54933 18.9337 6.73333 19.1044 6.872 19.3177C7.01067 19.5257 7.08 19.795 7.08 20.1257C7.08 20.419 7.00533 20.691 6.856 20.9417C6.70667 21.1924 6.48533 21.395 6.192 21.5497C5.89867 21.699 5.53867 21.7737 5.112 21.7737Z" fill="white"/>
<path d="M7.94944 23.4377V17.7097H8.86144L8.97344 18.2777C9.10144 18.1017 9.26944 17.947 9.47744 17.8137C9.69077 17.6804 9.96544 17.6137 10.3014 17.6137C10.6748 17.6137 11.0081 17.7044 11.3014 17.8857C11.5948 18.067 11.8268 18.315 11.9974 18.6297C12.1681 18.9444 12.2534 19.3017 12.2534 19.7017C12.2534 20.1017 12.1681 20.459 11.9974 20.7737C11.8268 21.083 11.5948 21.3284 11.3014 21.5097C11.0081 21.6857 10.6748 21.7737 10.3014 21.7737C10.0028 21.7737 9.74144 21.7177 9.51744 21.6057C9.29344 21.4937 9.1121 21.3364 8.97344 21.1337V23.4377H7.94944ZM10.0854 20.8777C10.4108 20.8777 10.6801 20.7684 10.8934 20.5497C11.1068 20.331 11.2134 20.0484 11.2134 19.7017C11.2134 19.355 11.1068 19.0697 10.8934 18.8457C10.6801 18.6217 10.4108 18.5097 10.0854 18.5097C9.75477 18.5097 9.48277 18.6217 9.26944 18.8457C9.06144 19.0644 8.95744 19.347 8.95744 19.6937C8.95744 20.0404 9.06144 20.3257 9.26944 20.5497C9.48277 20.7684 9.75477 20.8777 10.0854 20.8777Z" fill="white"/>
<path d="M14.5362 21.7737C14.1949 21.7737 13.9149 21.7204 13.6962 21.6137C13.4775 21.5017 13.3149 21.355 13.2082 21.1737C13.1015 20.9924 13.0482 20.7924 13.0482 20.5737C13.0482 20.2057 13.1922 19.907 13.4802 19.6777C13.7682 19.4484 14.2002 19.3337 14.7762 19.3337H15.7842V19.2377C15.7842 18.9657 15.7069 18.7657 15.5522 18.6377C15.3975 18.5097 15.2055 18.4457 14.9762 18.4457C14.7682 18.4457 14.5869 18.4964 14.4322 18.5977C14.2775 18.6937 14.1815 18.8377 14.1442 19.0297H13.1442C13.1709 18.7417 13.2669 18.491 13.4322 18.2777C13.6029 18.0644 13.8215 17.9017 14.0882 17.7897C14.3549 17.6724 14.6535 17.6137 14.9842 17.6137C15.5495 17.6137 15.9949 17.755 16.3202 18.0377C16.6455 18.3204 16.8082 18.7204 16.8082 19.2377V21.6777H15.9362L15.8402 21.0377C15.7229 21.251 15.5575 21.427 15.3442 21.5657C15.1362 21.7044 14.8669 21.7737 14.5362 21.7737ZM14.7682 20.9737C15.0615 20.9737 15.2882 20.8777 15.4482 20.6857C15.6135 20.4937 15.7175 20.2564 15.7602 19.9737H14.8882C14.6162 19.9737 14.4215 20.0244 14.3042 20.1257C14.1869 20.2217 14.1282 20.3417 14.1282 20.4857C14.1282 20.6404 14.1869 20.7604 14.3042 20.8457C14.4215 20.931 14.5762 20.9737 14.7682 20.9737Z" fill="white"/>
<path d="M19.7294 21.7737C19.324 21.7737 18.9667 21.6857 18.6574 21.5097C18.348 21.3337 18.1027 21.0884 17.9214 20.7737C17.7454 20.459 17.6574 20.099 17.6574 19.6937C17.6574 19.2884 17.7454 18.9284 17.9214 18.6137C18.1027 18.299 18.348 18.0537 18.6574 17.8777C18.9667 17.7017 19.324 17.6137 19.7294 17.6137C20.236 17.6137 20.6627 17.747 21.0094 18.0137C21.356 18.275 21.5774 18.6377 21.6734 19.1017H20.5934C20.54 18.9097 20.4334 18.7604 20.2734 18.6537C20.1187 18.5417 19.9347 18.4857 19.7214 18.4857C19.4387 18.4857 19.1987 18.5924 19.0014 18.8057C18.804 19.019 18.7054 19.315 18.7054 19.6937C18.7054 20.0724 18.804 20.3684 19.0014 20.5817C19.1987 20.795 19.4387 20.9017 19.7214 20.9017C19.9347 20.9017 20.1187 20.8484 20.2734 20.7417C20.4334 20.635 20.54 20.483 20.5934 20.2857H21.6734C21.5774 20.7337 21.356 21.0937 21.0094 21.3657C20.6627 21.6377 20.236 21.7737 19.7294 21.7737Z" fill="white"/>
<path d="M24.5103 21.7737C24.1103 21.7737 23.7556 21.6884 23.4463 21.5177C23.1369 21.347 22.8943 21.107 22.7183 20.7977C22.5422 20.4884 22.4543 20.131 22.4543 19.7257C22.4543 19.315 22.5396 18.9497 22.7103 18.6297C22.8863 18.3097 23.1262 18.0617 23.4303 17.8857C23.7396 17.7044 24.1022 17.6137 24.5182 17.6137C24.9076 17.6137 25.2516 17.699 25.5503 17.8697C25.8489 18.0404 26.0809 18.275 26.2463 18.5737C26.4169 18.867 26.5023 19.195 26.5023 19.5577C26.5023 19.6164 26.4996 19.6777 26.4942 19.7417C26.4942 19.8057 26.4916 19.8724 26.4862 19.9417H23.4702C23.4916 20.251 23.5983 20.4937 23.7903 20.6697C23.9876 20.8457 24.2249 20.9337 24.5023 20.9337C24.7103 20.9337 24.8836 20.8884 25.0222 20.7977C25.1662 20.7017 25.2729 20.579 25.3423 20.4297H26.3822C26.3076 20.6804 26.1823 20.9097 26.0063 21.1177C25.8356 21.3204 25.6223 21.4804 25.3663 21.5977C25.1156 21.715 24.8302 21.7737 24.5103 21.7737ZM24.5182 18.4457C24.2676 18.4457 24.0462 18.5177 23.8542 18.6617C23.6623 18.8004 23.5396 19.0137 23.4862 19.3017H25.4622C25.4462 19.0404 25.3503 18.8324 25.1742 18.6777C24.9982 18.523 24.7796 18.4457 24.5182 18.4457Z" fill="white"/>
<path d="M29.0035 21.7737C28.6515 21.7737 28.3422 21.7177 28.0755 21.6057C27.8088 21.4884 27.5955 21.3284 27.4355 21.1257C27.2755 20.923 27.1795 20.6884 27.1475 20.4217H28.1795C28.2115 20.5764 28.2968 20.7097 28.4355 20.8217C28.5795 20.9284 28.7635 20.9817 28.9875 20.9817C29.2115 20.9817 29.3742 20.9364 29.4755 20.8457C29.5822 20.755 29.6355 20.651 29.6355 20.5337C29.6355 20.363 29.5608 20.2484 29.4115 20.1897C29.2622 20.1257 29.0542 20.0644 28.7875 20.0057C28.6168 19.9684 28.4435 19.923 28.2675 19.8697C28.0915 19.8164 27.9288 19.7497 27.7795 19.6697C27.6355 19.5844 27.5182 19.4777 27.4275 19.3497C27.3368 19.2164 27.2915 19.0537 27.2915 18.8617C27.2915 18.5097 27.4302 18.2137 27.7075 17.9737C27.9902 17.7337 28.3848 17.6137 28.8915 17.6137C29.3608 17.6137 29.7342 17.723 30.0115 17.9417C30.2942 18.1604 30.4622 18.4617 30.5155 18.8457H29.5475C29.4888 18.5524 29.2675 18.4057 28.8835 18.4057C28.6915 18.4057 28.5422 18.443 28.4355 18.5177C28.3342 18.5924 28.2835 18.6857 28.2835 18.7977C28.2835 18.915 28.3608 19.0084 28.5155 19.0777C28.6702 19.147 28.8755 19.211 29.1315 19.2697C29.4088 19.3337 29.6622 19.4057 29.8915 19.4857C30.1262 19.5604 30.3128 19.675 30.4515 19.8297C30.5902 19.979 30.6595 20.195 30.6595 20.4777C30.6648 20.723 30.6008 20.9444 30.4675 21.1417C30.3342 21.339 30.1422 21.4937 29.8915 21.6057C29.6408 21.7177 29.3448 21.7737 29.0035 21.7737Z" fill="white"/>
<path d="M5.112 21.7737C4.70133 21.7737 4.33867 21.7044 4.024 21.5657C3.70933 21.4217 3.46133 21.219 3.28 20.9577C3.09867 20.691 3.00533 20.3684 3 19.9897H4.08C4.09067 20.251 4.184 20.4724 4.36 20.6537C4.54133 20.8297 4.78933 20.9177 5.104 20.9177C5.376 20.9177 5.592 20.8537 5.752 20.7257C5.912 20.5924 5.992 20.4164 5.992 20.1977C5.992 19.9684 5.92 19.7897 5.776 19.6617C5.63733 19.5337 5.45067 19.4297 5.216 19.3497C4.98133 19.2697 4.73067 19.1844 4.464 19.0937C4.032 18.9444 3.70133 18.7524 3.472 18.5177C3.248 18.283 3.136 17.971 3.136 17.5817C3.13067 17.251 3.208 16.9684 3.368 16.7337C3.53333 16.4937 3.75733 16.3097 4.04 16.1817C4.32267 16.0484 4.648 15.9817 5.016 15.9817C5.38933 15.9817 5.71733 16.0484 6 16.1817C6.288 16.315 6.512 16.5017 6.672 16.7417C6.83733 16.9817 6.92533 17.267 6.936 17.5977H5.84C5.83467 17.4004 5.75733 17.227 5.608 17.0777C5.464 16.923 5.26133 16.8457 5 16.8457C4.776 16.8404 4.58667 16.8964 4.432 17.0137C4.28267 17.1257 4.208 17.291 4.208 17.5097C4.208 17.6964 4.26667 17.8457 4.384 17.9577C4.50133 18.0644 4.66133 18.155 4.864 18.2297C5.06667 18.3044 5.29867 18.3844 5.56 18.4697C5.83733 18.5657 6.09067 18.6777 6.32 18.8057C6.54933 18.9337 6.73333 19.1044 6.872 19.3177C7.01067 19.5257 7.08 19.795 7.08 20.1257C7.08 20.419 7.00533 20.691 6.856 20.9417C6.70667 21.1924 6.48533 21.395 6.192 21.5497C5.89867 21.699 5.53867 21.7737 5.112 21.7737Z" stroke="#CCC4B9" stroke-width="4.42015" mask="url(#path-2-outside-1_103_566)"/>
<path d="M7.94944 23.4377V17.7097H8.86144L8.97344 18.2777C9.10144 18.1017 9.26944 17.947 9.47744 17.8137C9.69077 17.6804 9.96544 17.6137 10.3014 17.6137C10.6748 17.6137 11.0081 17.7044 11.3014 17.8857C11.5948 18.067 11.8268 18.315 11.9974 18.6297C12.1681 18.9444 12.2534 19.3017 12.2534 19.7017C12.2534 20.1017 12.1681 20.459 11.9974 20.7737C11.8268 21.083 11.5948 21.3284 11.3014 21.5097C11.0081 21.6857 10.6748 21.7737 10.3014 21.7737C10.0028 21.7737 9.74144 21.7177 9.51744 21.6057C9.29344 21.4937 9.1121 21.3364 8.97344 21.1337V23.4377H7.94944ZM10.0854 20.8777C10.4108 20.8777 10.6801 20.7684 10.8934 20.5497C11.1068 20.331 11.2134 20.0484 11.2134 19.7017C11.2134 19.355 11.1068 19.0697 10.8934 18.8457C10.6801 18.6217 10.4108 18.5097 10.0854 18.5097C9.75477 18.5097 9.48277 18.6217 9.26944 18.8457C9.06144 19.0644 8.95744 19.347 8.95744 19.6937C8.95744 20.0404 9.06144 20.3257 9.26944 20.5497C9.48277 20.7684 9.75477 20.8777 10.0854 20.8777Z" stroke="#CCC4B9" stroke-width="4.42015" mask="url(#path-2-outside-1_103_566)"/>
<path d="M14.5362 21.7737C14.1949 21.7737 13.9149 21.7204 13.6962 21.6137C13.4775 21.5017 13.3149 21.355 13.2082 21.1737C13.1015 20.9924 13.0482 20.7924 13.0482 20.5737C13.0482 20.2057 13.1922 19.907 13.4802 19.6777C13.7682 19.4484 14.2002 19.3337 14.7762 19.3337H15.7842V19.2377C15.7842 18.9657 15.7069 18.7657 15.5522 18.6377C15.3975 18.5097 15.2055 18.4457 14.9762 18.4457C14.7682 18.4457 14.5869 18.4964 14.4322 18.5977C14.2775 18.6937 14.1815 18.8377 14.1442 19.0297H13.1442C13.1709 18.7417 13.2669 18.491 13.4322 18.2777C13.6029 18.0644 13.8215 17.9017 14.0882 17.7897C14.3549 17.6724 14.6535 17.6137 14.9842 17.6137C15.5495 17.6137 15.9949 17.755 16.3202 18.0377C16.6455 18.3204 16.8082 18.7204 16.8082 19.2377V21.6777H15.9362L15.8402 21.0377C15.7229 21.251 15.5575 21.427 15.3442 21.5657C15.1362 21.7044 14.8669 21.7737 14.5362 21.7737ZM14.7682 20.9737C15.0615 20.9737 15.2882 20.8777 15.4482 20.6857C15.6135 20.4937 15.7175 20.2564 15.7602 19.9737H14.8882C14.6162 19.9737 14.4215 20.0244 14.3042 20.1257C14.1869 20.2217 14.1282 20.3417 14.1282 20.4857C14.1282 20.6404 14.1869 20.7604 14.3042 20.8457C14.4215 20.931 14.5762 20.9737 14.7682 20.9737Z" stroke="#CCC4B9" stroke-width="4.42015" mask="url(#path-2-outside-1_103_566)"/>
<path d="M19.7294 21.7737C19.324 21.7737 18.9667 21.6857 18.6574 21.5097C18.348 21.3337 18.1027 21.0884 17.9214 20.7737C17.7454 20.459 17.6574 20.099 17.6574 19.6937C17.6574 19.2884 17.7454 18.9284 17.9214 18.6137C18.1027 18.299 18.348 18.0537 18.6574 17.8777C18.9667 17.7017 19.324 17.6137 19.7294 17.6137C20.236 17.6137 20.6627 17.747 21.0094 18.0137C21.356 18.275 21.5774 18.6377 21.6734 19.1017H20.5934C20.54 18.9097 20.4334 18.7604 20.2734 18.6537C20.1187 18.5417 19.9347 18.4857 19.7214 18.4857C19.4387 18.4857 19.1987 18.5924 19.0014 18.8057C18.804 19.019 18.7054 19.315 18.7054 19.6937C18.7054 20.0724 18.804 20.3684 19.0014 20.5817C19.1987 20.795 19.4387 20.9017 19.7214 20.9017C19.9347 20.9017 20.1187 20.8484 20.2734 20.7417C20.4334 20.635 20.54 20.483 20.5934 20.2857H21.6734C21.5774 20.7337 21.356 21.0937 21.0094 21.3657C20.6627 21.6377 20.236 21.7737 19.7294 21.7737Z" stroke="#CCC4B9" stroke-width="4.42015" mask="url(#path-2-outside-1_103_566)"/>
<path d="M24.5103 21.7737C24.1103 21.7737 23.7556 21.6884 23.4463 21.5177C23.1369 21.347 22.8943 21.107 22.7183 20.7977C22.5422 20.4884 22.4543 20.131 22.4543 19.7257C22.4543 19.315 22.5396 18.9497 22.7103 18.6297C22.8863 18.3097 23.1262 18.0617 23.4303 17.8857C23.7396 17.7044 24.1022 17.6137 24.5182 17.6137C24.9076 17.6137 25.2516 17.699 25.5503 17.8697C25.8489 18.0404 26.0809 18.275 26.2463 18.5737C26.4169 18.867 26.5023 19.195 26.5023 19.5577C26.5023 19.6164 26.4996 19.6777 26.4942 19.7417C26.4942 19.8057 26.4916 19.8724 26.4862 19.9417H23.4702C23.4916 20.251 23.5983 20.4937 23.7903 20.6697C23.9876 20.8457 24.2249 20.9337 24.5023 20.9337C24.7103 20.9337 24.8836 20.8884 25.0222 20.7977C25.1662 20.7017 25.2729 20.579 25.3423 20.4297H26.3822C26.3076 20.6804 26.1823 20.9097 26.0063 21.1177C25.8356 21.3204 25.6223 21.4804 25.3663 21.5977C25.1156 21.715 24.8302 21.7737 24.5103 21.7737ZM24.5182 18.4457C24.2676 18.4457 24.0462 18.5177 23.8542 18.6617C23.6623 18.8004 23.5396 19.0137 23.4862 19.3017H25.4622C25.4462 19.0404 25.3503 18.8324 25.1742 18.6777C24.9982 18.523 24.7796 18.4457 24.5182 18.4457Z" stroke="#CCC4B9" stroke-width="4.42015" mask="url(#path-2-outside-1_103_566)"/>
<path d="M29.0035 21.7737C28.6515 21.7737 28.3422 21.7177 28.0755 21.6057C27.8088 21.4884 27.5955 21.3284 27.4355 21.1257C27.2755 20.923 27.1795 20.6884 27.1475 20.4217H28.1795C28.2115 20.5764 28.2968 20.7097 28.4355 20.8217C28.5795 20.9284 28.7635 20.9817 28.9875 20.9817C29.2115 20.9817 29.3742 20.9364 29.4755 20.8457C29.5822 20.755 29.6355 20.651 29.6355 20.5337C29.6355 20.363 29.5608 20.2484 29.4115 20.1897C29.2622 20.1257 29.0542 20.0644 28.7875 20.0057C28.6168 19.9684 28.4435 19.923 28.2675 19.8697C28.0915 19.8164 27.9288 19.7497 27.7795 19.6697C27.6355 19.5844 27.5182 19.4777 27.4275 19.3497C27.3368 19.2164 27.2915 19.0537 27.2915 18.8617C27.2915 18.5097 27.4302 18.2137 27.7075 17.9737C27.9902 17.7337 28.3848 17.6137 28.8915 17.6137C29.3608 17.6137 29.7342 17.723 30.0115 17.9417C30.2942 18.1604 30.4622 18.4617 30.5155 18.8457H29.5475C29.4888 18.5524 29.2675 18.4057 28.8835 18.4057C28.6915 18.4057 28.5422 18.443 28.4355 18.5177C28.3342 18.5924 28.2835 18.6857 28.2835 18.7977C28.2835 18.915 28.3608 19.0084 28.5155 19.0777C28.6702 19.147 28.8755 19.211 29.1315 19.2697C29.4088 19.3337 29.6622 19.4057 29.8915 19.4857C30.1262 19.5604 30.3128 19.675 30.4515 19.8297C30.5902 19.979 30.6595 20.195 30.6595 20.4777C30.6648 20.723 30.6008 20.9444 30.4675 21.1417C30.3342 21.339 30.1422 21.4937 29.8915 21.6057C29.6408 21.7177 29.3448 21.7737 29.0035 21.7737Z" stroke="#CCC4B9" stroke-width="4.42015" mask="url(#path-2-outside-1_103_566)"/>
</svg>
