<svg width="22" height="26" viewBox="0 0 22 26" fill="none" xmlns="http://www.w3.org/2000/svg">
<path d="M12.9643 1.625H9.03571H5.18571C3.9433 1.625 2.81875 2.38164 2.31295 3.55469L0.270089 8.30781C0.0933036 8.72422 0 9.17109 0 9.62813V21.125C0 22.9176 1.40937 24.375 3.14286 24.375H18.8571C20.5906 24.375 22 22.9176 22 21.125V9.62813C22 9.17109 21.9067 8.72422 21.7299 8.30781L19.6871 3.55469C19.1812 2.38164 18.0567 1.625 16.8143 1.625H12.9643ZM14.1429 8.125L13.2589 3.25H16.8143C17.433 3.25 17.9978 3.62578 18.2482 4.21484L19.9277 8.125H14.9286H14.1429ZM12.542 8.125H9.45804L10.342 3.25H11.6629L12.5469 8.125H12.542ZM12.5714 9.75V13H9.42857V9.75H12.5714ZM7.85714 9.75V13C7.85714 13.8988 8.55937 14.625 9.42857 14.625H12.5714C13.4406 14.625 14.1429 13.8988 14.1429 13V9.75H14.9286H20.4286V21.125C20.4286 22.0238 19.7263 22.75 18.8571 22.75H3.14286C2.27366 22.75 1.57143 22.0238 1.57143 21.125V9.75H7.07143H7.85714ZM7.85714 8.125H7.07143H2.06741L3.74688 4.21484C3.99732 3.62578 4.56205 3.25 5.1808 3.25H8.74107L7.85714 8.125Z" fill="white"/>
</svg>
