<svg width="20" height="25" viewBox="0 0 20 25" fill="none" xmlns="http://www.w3.org/2000/svg">
<path d="M19.7902 7.15271C20.067 6.86208 20.067 6.38396 19.7902 6.09333L15.5045 1.59333C15.2277 1.30271 14.7723 1.30271 14.4955 1.59333C14.2188 1.88396 14.2188 2.36208 14.4955 2.65271L17.5625 5.87302H0.714286C0.321429 5.87302 0 6.21052 0 6.62302C0 7.03552 0.321429 7.37302 0.714286 7.37302H17.5625L14.4955 10.5933C14.2188 10.884 14.2188 11.3621 14.4955 11.6527C14.7723 11.9433 15.2277 11.9433 15.5045 11.6527L19.7902 7.15271ZM4.49554 23.6527C4.77232 23.9433 5.22768 23.9433 5.50446 23.6527C5.78125 23.3621 5.78125 22.884 5.50446 22.5933L2.4375 19.373H19.2857C19.6786 19.373 20 19.0355 20 18.623C20 18.2105 19.6786 17.873 19.2857 17.873H2.4375L5.50446 14.6527C5.78125 14.3621 5.78125 13.884 5.50446 13.5933C5.22768 13.3027 4.77232 13.3027 4.49554 13.5933L0.209821 18.0933C-0.0669643 18.384 -0.0669643 18.8621 0.209821 19.1527L4.49554 23.6527Z" fill="white"/>
</svg>
